<?xml version="1.0" encoding="UTF-8" standalone="no"?>
<!-- Created with Inkscape (http://www.inkscape.org/) -->

<svg
   xmlns:dc="http://purl.org/dc/elements/1.1/"
   xmlns:cc="http://creativecommons.org/ns#"
   xmlns:rdf="http://www.w3.org/1999/02/22-rdf-syntax-ns#"
   xmlns:svg="http://www.w3.org/2000/svg"
   xmlns="http://www.w3.org/2000/svg"
   xmlns:sodipodi="http://sodipodi.sourceforge.net/DTD/sodipodi-0.dtd"
   xmlns:inkscape="http://www.inkscape.org/namespaces/inkscape"
   version="1.1"
   id="svg2"
   xml:space="preserve"
   width="246.79143"
   height="115.14906"
   viewBox="0 0 246.79143 115.14906"
   sodipodi:docname="RSPB.svg"
   inkscape:version="0.92.1 r15371"><metadata
     id="metadata8"><rdf:RDF><cc:Work
         rdf:about=""><dc:format>image/svg+xml</dc:format><dc:type
           rdf:resource="http://purl.org/dc/dcmitype/StillImage" /><dc:title></dc:title></cc:Work></rdf:RDF></metadata><defs
     id="defs6"><clipPath
       clipPathUnits="userSpaceOnUse"
       id="clipPath18"><path
         d="m 36,942.115 h 139.384 v 65.034 H 36 Z"
         id="path16"
         inkscape:connector-curvature="0" /></clipPath></defs><sodipodi:namedview
     pagecolor="#ffffff"
     bordercolor="#666666"
     borderopacity="1"
     objecttolerance="10"
     gridtolerance="10"
     guidetolerance="10"
     inkscape:pageopacity="0"
     inkscape:pageshadow="2"
     inkscape:window-width="1920"
     inkscape:window-height="1017"
     id="namedview4"
     showgrid="false"
     fit-margin-top="0"
     fit-margin-left="0"
     fit-margin-right="0"
     fit-margin-bottom="0"
     inkscape:zoom="1.9196917"
     inkscape:cx="144.40766"
     inkscape:cy="12.108046"
     inkscape:window-x="-8"
     inkscape:window-y="-8"
     inkscape:window-maximized="1"
     inkscape:current-layer="g10" /><g
     id="g10"
     inkscape:groupmode="layer"
     inkscape:label="A9R1gxlj2_1u0tzg2_nk"
     transform="matrix(1.3333333,0,0,-1.3333333,12.946889,1371.3024)"><g
       id="g169"
       transform="matrix(1.3279484,0,0,1.3279484,-57.516708,-308.96511)"><g
         id="g12"><g
           clip-path="url(#clipPath18)"
           id="g14"><g
             transform="translate(110.1941,989.2035)"
             id="g20"><path
               inkscape:connector-curvature="0"
               id="path22"
               style="fill:#231f20;fill-opacity:1;fill-rule:nonzero;stroke:none"
               d="m 0,0 c 0.084,-1.167 0.585,-2.043 2.44,-2.043 2.732,0 2.775,1.981 2.775,4.817 C 4.381,1.044 2.399,1.002 1.774,1.002 c -0.961,0 -2.337,0.208 -3.212,1.293 -0.898,1.064 -1.191,2.461 -1.191,3.858 0,3.546 2.088,5.278 4.652,5.278 2.106,0 2.878,-1.043 3.295,-1.586 L 5.34,11.284 H 7.238 L 7.197,9.386 7.176,2.838 c 0,-2.524 -0.085,-3.546 -0.501,-4.339 -0.877,-1.668 -2.919,-1.877 -4.36,-1.877 -4.192,0 -4.317,1.96 -4.401,3.378 z m 4.569,3.505 c 0.416,0.542 0.708,1.105 0.708,3.003 0,1.314 -0.292,2.064 -0.815,2.608 -0.52,0.562 -1.354,0.917 -2.25,0.917 -2.482,0 -2.816,-2.503 -2.816,-3.838 0,-1.605 0.479,-3.734 2.878,-3.734 1.147,0 1.815,0.417 2.295,1.044" /></g><path
             inkscape:connector-curvature="0"
             id="path24"
             style="fill:#231f20;fill-opacity:1;fill-rule:nonzero;stroke:none"
             d="m 120.164,1005.036 h 2.358 v -2.148 h -2.358 z m 0.209,-4.548 h 1.963 v -10.471 h -1.963 z" /><g
             transform="translate(124.2716,1000.4879)"
             id="g26"><path
               inkscape:connector-curvature="0"
               id="path28"
               style="fill:#231f20;fill-opacity:1;fill-rule:nonzero;stroke:none"
               d="M 0,0 H 2.189 L 5.527,-8.301 8.782,0 h 2.169 L 6.361,-10.471 H 4.379 Z" /></g><path
             inkscape:connector-curvature="0"
             id="path30"
             style="fill:#231f20;fill-opacity:1;fill-rule:nonzero;stroke:none"
             d="m 136.557,1005.036 h 2.358 v -2.148 h -2.358 z m 0.208,-4.548 h 1.962 v -10.471 h -1.962 z" /><g
             transform="translate(141.8966,999.279)"
             id="g32"><path
               inkscape:connector-curvature="0"
               id="path34"
               style="fill:#231f20;fill-opacity:1;fill-rule:nonzero;stroke:none"
               d="m 0,0 -0.021,1.209 h 1.96 l 0.021,-1.69 c 0.23,0.439 0.982,1.898 3.359,1.898 0.94,0 3.797,-0.354 3.797,-3.566 V -9.262 H 7.112 v 6.654 c 0,0.688 -0.082,1.314 -0.563,1.795 -0.498,0.479 -1.189,0.708 -1.855,0.708 -1.419,0 -2.734,-1.021 -2.734,-3.128 V -9.262 H 0 Z" /></g><g
             transform="translate(155.7481,989.2035)"
             id="g36"><path
               inkscape:connector-curvature="0"
               id="path38"
               style="fill:#231f20;fill-opacity:1;fill-rule:nonzero;stroke:none"
               d="m 0,0 c 0.084,-1.167 0.582,-2.043 2.44,-2.043 2.732,0 2.775,1.981 2.775,4.817 C 4.379,1.044 2.399,1.002 1.773,1.002 c -0.961,0 -2.337,0.208 -3.214,1.293 -0.896,1.064 -1.188,2.461 -1.188,3.858 0,3.546 2.085,5.278 4.652,5.278 2.106,0 2.878,-1.043 3.295,-1.586 L 5.34,11.284 H 7.238 L 7.195,9.386 7.175,2.838 c 0,-2.524 -0.084,-3.546 -0.501,-4.339 -0.877,-1.668 -2.921,-1.877 -4.36,-1.877 -4.193,0 -4.318,1.96 -4.402,3.378 z m 4.568,3.505 c 0.417,0.542 0.709,1.105 0.709,3.003 0,1.314 -0.292,2.064 -0.815,2.608 -0.519,0.562 -1.354,0.917 -2.252,0.917 -2.481,0 -2.817,-2.503 -2.817,-3.838 0,-1.605 0.482,-3.734 2.879,-3.734 1.149,0 1.816,0.417 2.296,1.044" /></g><g
             transform="translate(108.3798,977.8052)"
             id="g40"><path
               inkscape:connector-curvature="0"
               id="path42"
               style="fill:#231f20;fill-opacity:1;fill-rule:nonzero;stroke:none"
               d="M 0,0 -0.021,1.209 H 1.94 l 0.021,-1.69 c 0.229,0.439 0.98,1.898 3.358,1.898 0.939,0 3.796,-0.354 3.796,-3.565 V -9.262 H 7.114 v 6.654 c 0,0.688 -0.085,1.314 -0.564,1.794 -0.5,0.48 -1.189,0.71 -1.857,0.71 -1.419,0 -2.732,-1.022 -2.732,-3.129 V -9.262 H 0 Z" /></g><g
             transform="translate(126.7357,968.5434)"
             id="g44"><path
               inkscape:connector-curvature="0"
               id="path46"
               style="fill:#231f20;fill-opacity:1;fill-rule:nonzero;stroke:none"
               d="m 0,0 c -0.146,0.521 -0.187,1.023 -0.187,1.565 -0.94,-1.731 -2.358,-1.898 -3.234,-1.898 -2.398,0 -3.692,1.356 -3.692,3.087 0,0.834 0.293,2.169 1.836,3.066 1.126,0.626 2.794,0.688 3.628,0.688 0.501,0 0.815,-0.02 1.419,-0.062 0,1.293 0,1.856 -0.374,2.315 -0.398,0.521 -1.254,0.688 -1.817,0.688 -1.979,0 -2.085,-1.356 -2.106,-1.773 h -1.961 c 0.063,0.542 0.125,1.273 0.732,1.981 0.793,0.876 2.272,1.127 3.379,1.127 1.521,0 3.148,-0.48 3.712,-1.544 C 1.668,8.615 1.689,8.114 1.689,7.634 L 1.605,2.628 C 1.605,2.461 1.627,1.064 1.773,0 Z m -1.356,5.153 c -0.794,0 -3.775,0 -3.775,-2.129 0,-0.667 0.417,-1.814 2.169,-1.814 1.001,0 1.751,0.397 2.231,1.127 0.439,0.709 0.46,1.293 0.501,2.752 -0.355,0.042 -0.647,0.064 -1.126,0.064" /></g><g
             transform="translate(129.6356,979.0564)"
             id="g48"><path
               inkscape:connector-curvature="0"
               id="path50"
               style="fill:#231f20;fill-opacity:1;fill-rule:nonzero;stroke:none"
               d="M 0,0 H 1.857 V 2.19 L 3.796,2.816 V 0 H 6.133 V -1.439 H 3.796 v -6.278 c 0,-0.521 0,-1.399 1.398,-1.399 0.397,0 0.771,0.064 0.939,0.106 v -1.523 c -0.356,-0.063 -0.918,-0.126 -1.627,-0.126 -1.793,0 -2.649,0.523 -2.649,2.232 v 6.988 H 0 Z" /></g><g
             transform="translate(139.2723,979.0145)"
             id="g52"><path
               inkscape:connector-curvature="0"
               id="path54"
               style="fill:#231f20;fill-opacity:1;fill-rule:nonzero;stroke:none"
               d="m 0,0 v -6.737 c 0,-1.022 0.231,-2.315 2.231,-2.315 0.981,0 1.898,0.333 2.462,1.168 0.438,0.625 0.438,1.439 0.438,1.96 V 0 h 2.024 v -8.511 c 0,-0.208 0.041,-1.375 0.062,-1.96 H 5.174 l -0.043,1.794 c -0.374,-0.73 -1.083,-1.898 -3.335,-1.898 -2.589,0 -3.797,1.481 -3.797,3.545 V 0 Z" /></g><g
             transform="translate(149.6193,976.887)"
             id="g56"><path
               inkscape:connector-curvature="0"
               id="path58"
               style="fill:#231f20;fill-opacity:1;fill-rule:nonzero;stroke:none"
               d="M 0,0 C 0,0.71 -0.042,1.439 -0.105,2.127 H 1.877 L 1.918,0.105 c 0.376,1.459 1.627,1.94 2.504,2.064 0.584,0.084 1.021,0.063 1.357,0.042 V 0.291 C 5.673,0.333 5.549,0.355 5.402,0.375 5.256,0.395 5.069,0.395 4.839,0.395 2.524,0.395 1.983,-0.98 1.983,-2.774 v -5.57 H 0 Z" /></g><g
             transform="translate(158.1088,973.4241)"
             id="g60"><path
               inkscape:connector-curvature="0"
               id="path62"
               style="fill:#231f20;fill-opacity:1;fill-rule:nonzero;stroke:none"
               d="m 0,0 c -0.041,-2.169 0.855,-3.775 3.002,-3.775 1.273,0 2.297,0.668 2.462,2.169 H 7.425 C 7.363,-2.127 7.279,-2.982 6.528,-3.796 6.071,-4.317 5.028,-5.193 2.921,-5.193 c -3.297,0 -4.86,2.044 -4.86,5.361 0,2.064 0.417,3.774 2.063,4.921 1.002,0.709 2.253,0.772 2.86,0.772 C 7.676,5.861 7.57,1.711 7.53,0 Z M 5.526,1.377 C 5.549,2.379 5.361,4.464 2.94,4.464 1.668,4.464 0.124,3.692 0.084,1.377 Z" /></g><g
             transform="translate(114.6998,947.3157)"
             id="g64"><path
               inkscape:connector-curvature="0"
               id="path66"
               style="fill:#231f20;fill-opacity:1;fill-rule:nonzero;stroke:none"
               d="m 0,0 c -0.147,0.521 -0.186,1.022 -0.186,1.565 -0.94,-1.732 -2.359,-1.898 -3.234,-1.898 -2.399,0 -3.693,1.355 -3.693,3.086 0,0.834 0.292,2.169 1.836,3.067 1.126,0.625 2.794,0.687 3.628,0.687 0.501,0 0.815,-0.02 1.419,-0.062 0,1.293 0,1.857 -0.374,2.316 -0.397,0.521 -1.253,0.687 -1.817,0.687 -1.979,0 -2.085,-1.355 -2.106,-1.772 h -1.96 c 0.062,0.542 0.124,1.273 0.731,1.981 0.793,0.876 2.271,1.126 3.379,1.126 1.522,0 3.149,-0.479 3.712,-1.543 C 1.668,8.615 1.69,8.113 1.69,7.634 L 1.606,2.628 C 1.606,2.461 1.627,1.064 1.774,0 Z m -1.356,5.152 c -0.794,0 -3.775,0 -3.775,-2.128 0,-0.667 0.417,-1.814 2.169,-1.814 1.001,0 1.751,0.397 2.232,1.126 0.438,0.71 0.46,1.294 0.5,2.753 -0.354,0.042 -0.647,0.063 -1.126,0.063" /></g><g
             transform="translate(123.6013,962.3544)"
             id="g68"><path
               inkscape:connector-curvature="0"
               id="path70"
               style="fill:#231f20;fill-opacity:1;fill-rule:nonzero;stroke:none"
               d="m 0,0 h 1.982 v -6.112 c 0.647,1.107 1.939,1.732 3.401,1.732 1.104,0 2.688,-0.397 3.295,-1.67 0.208,-0.416 0.355,-0.917 0.355,-2.439 v -6.55 H 7.029 v 6.195 c 0,0.939 0,2.963 -2.252,2.963 -1.46,0 -2.192,-0.898 -2.462,-1.399 C 1.982,-7.863 1.982,-8.844 1.982,-9.491 v -5.548 H 0 Z" /></g><g
             transform="translate(140.1853,958.057)"
             id="g72"><path
               inkscape:connector-curvature="0"
               id="path74"
               style="fill:#231f20;fill-opacity:1;fill-rule:nonzero;stroke:none"
               d="m 0,0 c 4.191,0 5.13,-3.295 5.13,-5.485 0,-3.066 -1.732,-5.611 -5.298,-5.611 -3.462,0 -5.153,2.399 -5.153,5.465 C -5.321,-3.045 -4.11,0 0,0 m -0.127,-9.636 c 1.482,0 3.171,1.065 3.171,4.214 0,2.607 -1.211,3.984 -3.044,3.984 -1.254,0 -3.276,-0.793 -3.276,-4.068 0,-2.149 0.918,-4.13 3.149,-4.13" /></g><g
             transform="translate(147.6521,956.3892)"
             id="g76"><path
               inkscape:connector-curvature="0"
               id="path78"
               style="fill:#231f20;fill-opacity:1;fill-rule:nonzero;stroke:none"
               d="m 0,0 -0.041,1.397 h 1.98 v -1.521 c 1.001,1.646 2.421,1.792 3.317,1.792 2.315,0 3.046,-1.189 3.422,-1.96 0.352,0.584 1.208,1.96 3.523,1.96 1.503,0 3.84,-0.626 3.84,-3.712 v -7.029 h -1.982 v 6.716 c 0,0.918 -0.168,1.314 -0.355,1.585 -0.334,0.48 -1.002,0.918 -2.003,0.918 C 10.43,0.146 9.74,-0.584 9.469,-0.96 9.012,-1.606 9.012,-2.753 9.012,-3.213 v -5.86 H 7.029 v 6.925 c 0,1.293 -0.75,2.294 -2.293,2.294 C 3.401,0.146 2.67,-0.688 2.44,-1.002 2.004,-1.606 1.983,-2.461 1.983,-3.129 V -9.073 H 0 Z" /></g><g
             transform="translate(167.8432,952.1962)"
             id="g80"><path
               inkscape:connector-curvature="0"
               id="path82"
               style="fill:#231f20;fill-opacity:1;fill-rule:nonzero;stroke:none"
               d="m 0,0 c -0.04,-2.169 0.857,-3.775 3.006,-3.775 1.27,0 2.294,0.668 2.461,2.169 H 7.428 C 7.365,-2.127 7.282,-2.982 6.529,-3.796 6.071,-4.317 5.029,-5.193 2.921,-5.193 c -3.294,0 -4.859,2.044 -4.859,5.361 0,2.064 0.417,3.775 2.066,4.921 C 1.127,5.798 2.377,5.861 2.985,5.861 7.677,5.861 7.574,1.711 7.53,0 Z M 5.53,1.377 C 5.549,2.379 5.361,4.464 2.941,4.464 1.672,4.464 0.128,3.692 0.085,1.377 Z" /></g><path
             inkscape:connector-curvature="0"
             id="path84"
             style="fill:#ffffff;fill-opacity:1;fill-rule:nonzero;stroke:none"
             d="M 101.02,942.115 H 36.004 v 65.034 h 65.016 z" /><g
             transform="translate(36.0023,1007.1494)"
             id="g86"><path
               inkscape:connector-curvature="0"
               id="path88"
               style="fill:#0f85d1;fill-opacity:1;fill-rule:nonzero;stroke:none"
               d="m 0,0 c 0.973,-0.292 7.566,-5.379 13.925,-13.827 0.047,-0.065 0.05,-0.065 0.411,-0.439 0.71,-0.733 1.767,-0.18 2.291,0.004 1.185,0.408 2.951,1.091 3.9,1.465 1.934,0.762 6.219,3.234 12.072,1.737 6.782,-1.732 5.928,-8.608 5.798,-10.141 0,0 6.885,-6.376 10.048,-8.143 4.837,-2.71 11.435,-3.49 11.435,-3.49 0,0 1.357,-0.118 1.344,-1.012 -0.012,-0.947 -1.222,-1.021 -1.222,-1.021 0,0 -5.762,-0.956 -12.287,1.915 -5.853,2.574 -12.068,7.396 -12.068,7.396 0,0 -8.729,1.175 -14.565,0.147 -5.836,-1.031 -10.363,-4.001 -21.084,-2.974 v -36.651 h 65.02 V 0 Z" /></g><g
             transform="translate(41.2008,959.4097)"
             id="g90"><path
               inkscape:connector-curvature="0"
               id="path92"
               style="fill:#ffffff;fill-opacity:1;fill-rule:nonzero;stroke:none"
               d="M 0,0 C 0,1.032 -0.06,2.088 -0.151,3.087 H 2.725 L 2.786,0.151 C 3.33,2.272 5.146,2.968 6.417,3.148 7.264,3.271 7.899,3.238 8.385,3.21 V 0.425 C 8.233,0.486 8.05,0.514 7.839,0.547 7.628,0.575 7.355,0.575 7.022,0.575 c -3.36,0 -4.146,-1.998 -4.146,-4.598 v -8.084 H 0 Z" /></g><g
             transform="translate(53.7518,951.8138)"
             id="g94"><path
               inkscape:connector-curvature="0"
               id="path96"
               style="fill:#ffffff;fill-opacity:1;fill-rule:nonzero;stroke:none"
               d="m 0,0 c -0.031,-1.151 0.575,-2.757 3.329,-2.757 1.181,0 2.057,0.213 2.662,0.97 0.305,0.396 0.486,0.91 0.486,1.425 0,1.482 -1.061,1.752 -3.329,2.27 -3.179,0.726 -5.842,1.362 -5.842,4.538 0,2.784 2.421,4.6 5.932,4.6 1.906,0 4.57,-0.543 5.478,-2.36 C 9.109,7.841 9.109,7.112 9.109,6.474 H 6.205 C 6.296,8.779 4.297,8.957 3.269,8.957 2.845,8.957 0.182,8.957 0.182,6.781 0.182,5.386 1.543,5.052 2.33,4.844 6.536,3.845 7.446,3.601 8.352,2.757 9.2,1.965 9.503,0.91 9.503,-0.061 c 0,-1.697 -0.937,-3.148 -2.057,-3.842 -1.333,-0.82 -2.936,-1.03 -4.51,-1.03 -3.087,0 -5.963,1.272 -5.933,4.933 z" /></g><g
             transform="translate(72.5316,948.8171)"
             id="g98"><path
               inkscape:connector-curvature="0"
               id="path100"
               style="fill:#ffffff;fill-opacity:1;fill-rule:nonzero;stroke:none"
               d="m 0,0 c 0.726,0 2.235,0.151 3.204,1.483 1.093,1.485 1.244,3.663 1.244,4.75 0,2.725 -0.82,5.572 -4.175,5.572 C -4.27,11.805 -4.27,6.993 -4.27,5.631 -4.27,3.784 -3.998,0 0,0 m -6.993,11.2 c 0,0.666 -0.031,1.027 -0.092,2.48 h 2.874 l 0.062,-2.512 c 1.422,2.393 3.933,2.756 5.176,2.756 3.27,0 6.386,-2.242 6.386,-7.871 0,-5.658 -3.299,-8.141 -6.932,-8.141 -2.209,0 -3.844,0.937 -4.661,2.27 l 0.003,-6.884 h -2.816 z" /></g><g
             transform="translate(89.3269,960.9556)"
             id="g102"><path
               inkscape:connector-curvature="0"
               id="path104"
               style="fill:#ffffff;fill-opacity:1;fill-rule:nonzero;stroke:none"
               d="m 0,0 c -4.362,0 -4.362,-5.086 -4.362,-6.056 0,-0.998 0,-5.75 4.24,-5.75 3.511,0 4.388,3.418 4.388,5.901 C 4.266,-4.392 3.964,0 0,0 m -4.296,-0.668 c 0.39,0.697 1.511,2.605 4.96,2.605 1.514,0 3.417,-0.363 4.813,-1.937 0.755,-0.88 1.785,-2.394 1.785,-5.721 0,-2.935 -0.693,-4.542 -1.455,-5.541 -1.208,-1.725 -3.234,-2.602 -5.325,-2.602 -0.726,0 -2.087,0.09 -3.389,0.966 -0.844,0.575 -1.179,1.092 -1.483,1.546 l -0.058,-2.3 h -2.756 l 0.06,2.723 V 8.2 h 2.848 z" /></g><g
             transform="translate(49.651,991.6108)"
             id="g106"><path
               inkscape:connector-curvature="0"
               id="path108"
               style="fill:#231f20;fill-opacity:1;fill-rule:nonzero;stroke:none"
               d="m 0,0 c 1.076,-0.815 2.224,-0.561 3.385,-0.122 1.243,0.471 2.428,0.863 3.656,1.366 1.251,0.51 2.476,1.093 3.767,1.505 2.632,0.852 5.536,1.222 8.177,0.209 5.961,-2.286 4.207,-7.73 4.291,-9.199 0,0 7.395,-7.108 12.785,-9.454 1.12,-0.487 3.047,-1.194 5.408,-1.668 2.188,-0.441 4.442,-0.611 4.442,-0.611 0,0 0.616,-0.051 0.765,-0.123 0.187,-0.096 0.255,-0.467 -0.2,-0.525 -0.214,-0.024 -1.8,-0.153 -4.04,0.079 -1.585,0.171 -3.392,0.451 -5.822,1.284 -3.762,1.298 -8.394,4.588 -10.45,6.047 0,0 -4.408,3.138 -4.465,3.177 -0.491,0.353 -0.005,0.984 -0.209,1.399 -0.27,0.561 -1.242,0.446 -1.767,0.489 -1.486,0.132 -3.022,0.122 -4.236,1.127 -0.976,0.805 -1.589,1.948 -2.052,3.101 -0.266,0.661 -0.309,1.679 -0.997,2.013 C 11.276,0.661 9.668,-0.175 8.595,-0.614 7.026,-1.253 5.8,-1.746 3.866,-2.515 2.96,-2.875 1.728,-3.125 0.887,-2.497 0.155,-1.951 0.164,-0.812 0,0" /></g><g
             transform="translate(69.5053,990.6602)"
             id="g110"><path
               inkscape:connector-curvature="0"
               id="path112"
               style="fill:#ffffff;fill-opacity:1;fill-rule:nonzero;stroke:none"
               d="m 0,0 c 0.182,-0.352 0.284,-0.743 0.284,-1 0,-0.257 -0.091,-0.273 -0.208,-0.209 -0.187,0.532 -0.519,1.213 -1.042,1.48 -0.541,0.323 -1.474,0.433 -2.197,-0.068 -0.306,-0.194 -0.396,-0.421 -0.324,-0.798 0.101,-0.639 0.619,-1.402 1.23,-1.622 0.477,-0.179 1.269,-0.113 1.715,0.071 0.047,0.008 0.104,-0.026 0.101,-0.072 -0.073,-0.256 -0.451,-0.444 -0.654,-0.499 -0.52,-0.138 -1.333,0.066 -1.635,0.257 -0.983,0.628 -1.216,1.419 -1.373,2.512 0.778,0.557 1.268,0.901 2.184,0.962 0.839,0.025 1.454,-0.239 1.892,-0.96" /></g><g
             transform="translate(68.3971,990.213)"
             id="g114"><path
               inkscape:connector-curvature="0"
               id="path116"
               style="fill:#ffffff;fill-opacity:1;fill-rule:nonzero;stroke:none"
               d="m 0,0 c 0,-0.237 -0.192,-0.431 -0.431,-0.431 -0.24,0 -0.434,0.194 -0.434,0.431 0,0.24 0.194,0.434 0.434,0.434 C -0.192,0.434 0,0.24 0,0" /></g></g></g></g></g></svg>